<?xml version="1.0" standalone="no"?>
<!DOCTYPE svg PUBLIC "-//W3C//DTD SVG 20010904//EN"
 "http://www.w3.org/TR/2001/REC-SVG-20010904/DTD/svg10.dtd">
<svg version="1.0" xmlns="http://www.w3.org/2000/svg"
 width="300.000000pt" height="300.000000pt" viewBox="0 0 300.000000 300.000000"
 preserveAspectRatio="xMidYMid meet">
<metadata>
Created by potrace 1.11, written by Peter Selinger 2001-2013
</metadata>
<g transform="translate(0.000000,300.000000) scale(0.100000,-0.100000)"
fill="#000000" stroke="none">
<path d="M135 2100 l-49 -5 0 -88 c1 -48 4 -90 8 -94 3 -3 6 0 6 9 0 8 9 23
20 33 11 10 17 21 15 25 -7 12 45 71 56 64 5 -3 12 2 15 10 3 9 14 16 23 16
10 0 25 6 35 13 16 11 15 13 -11 15 -15 1 -37 3 -48 5 -11 1 -42 0 -70 -3z"/>
<path d="M553 2102 c-41 -3 -43 -5 -43 -35 0 -18 -1 -290 -2 -604 -1 -315 1
-576 4 -579 4 -3 27 -6 53 -6 50 0 92 26 76 46 -5 6 -9 189 -9 406 -1 811 0
758 -19 767 -10 5 -37 7 -60 5z"/>
<path d="M887 2098 c-5 -3 -16 -4 -24 -1 -9 4 -11 0 -7 -11 4 -10 12 -15 20
-12 15 6 77 -34 112 -70 13 -14 32 -45 43 -69 11 -25 21 -45 23 -45 1 0 3 24
3 53 1 28 4 65 7 82 2 16 0 35 -5 42 -6 7 -8 17 -4 23 7 11 6 11 -88 14 -38 0
-74 -2 -80 -6z"/>
<path d="M1837 2066 c-4 -10 -19 -13 -56 -11 -27 2 -56 7 -63 11 -16 9 14 -28
60 -75 18 -18 31 -35 28 -38 -3 -3 4 -14 14 -26 11 -11 17 -24 14 -29 -3 -4
-2 -14 3 -20 4 -7 8 -17 9 -23 0 -5 2 -16 2 -22 1 -7 6 -13 10 -13 12 0 8 253
-5 257 -6 2 -13 -3 -16 -11z"/>
<path d="M2300 2065 c-7 -8 -18 -15 -24 -15 -25 0 -134 -119 -174 -188 -23
-41 -42 -80 -42 -87 0 -8 -4 -17 -10 -20 -5 -3 -10 -16 -10 -29 0 -12 -3 -26
-7 -30 -7 -7 -8 -12 -19 -76 -13 -72 -9 -213 8 -300 23 -120 76 -227 149 -300
58 -59 163 -120 214 -125 l30 -3 -32 14 c-18 8 -33 19 -33 26 0 6 -3 9 -6 6
-7 -8 -74 57 -74 71 0 6 -4 11 -8 11 -13 0 -58 90 -75 150 -27 94 -32 149 -31
350 0 150 4 210 18 260 9 36 20 76 23 90 3 13 12 31 20 38 7 7 13 21 13 31 0
20 21 50 68 97 17 19 32 36 32 39 0 10 -18 5 -30 -10z"/>
<path d="M1225 2028 c-14 -18 -32 -40 -40 -49 -7 -9 -17 -27 -21 -40 -7 -23
-10 -38 -17 -99 -1 -14 -6 -30 -9 -36 -4 -6 -4 -14 -1 -18 4 -4 8 -32 8 -62 1
-31 6 -59 11 -62 6 -4 21 -26 34 -49 13 -24 26 -43 29 -43 4 0 17 -10 31 -23
33 -30 124 -77 149 -77 11 0 22 -4 25 -8 3 -5 21 -9 41 -10 19 -1 44 -6 54
-12 11 -5 33 -10 50 -10 17 0 45 -7 63 -15 18 -8 52 -19 76 -25 42 -11 122
-72 122 -93 0 -6 10 -21 22 -34 19 -20 22 -34 21 -103 -2 -80 -29 -170 -52
-170 -6 0 -11 -4 -11 -10 0 -5 4 -10 9 -10 12 0 82 87 86 108 2 9 4 17 5 17 1
0 3 7 5 15 2 8 6 29 10 45 12 49 10 167 -4 216 -13 46 -68 119 -89 119 -7 0
-12 4 -12 9 0 24 -263 111 -338 111 -10 0 -22 4 -27 9 -6 5 -29 12 -53 15 -45
6 -108 32 -130 53 -7 7 -19 16 -25 20 -58 36 -83 194 -43 265 12 20 31 48 43
62 13 14 19 26 14 26 -5 0 -21 -15 -36 -32z"/>
<path d="M2881 2033 c-9 -17 -81 -28 -81 -12 0 4 -12 9 -26 12 l-26 5 23 -24
c51 -52 57 -60 61 -74 2 -8 9 -21 16 -28 7 -8 10 -18 7 -23 -4 -5 0 -9 8 -9
13 0 15 -5 19 -50 1 -11 6 -20 11 -20 4 0 5 -4 2 -10 -3 -5 0 -7 7 -5 10 4 13
33 12 118 -1 61 -2 118 -3 125 -2 18 -18 15 -30 -5z"/>
<path d="M2853 1278 c-24 -5 -44 -12 -44 -16 -1 -4 -3 -45 -5 -92 -5 -126 -8
-148 -22 -162 -7 -7 -12 -17 -12 -24 0 -7 -17 -26 -37 -43 -37 -30 -31 -32 25
-10 53 22 79 35 108 56 17 13 36 23 41 23 21 0 32 57 31 153 -1 68 -5 100 -15
108 -7 6 -13 8 -13 3 0 -5 -4 -4 -8 2 -5 7 -21 7 -49 2z"/>
<path d="M1135 1067 l1 -142 24 3 c13 1 27 8 31 14 7 11 62 3 137 -18 13 -4
22 -2 22 5 0 6 -4 10 -9 8 -15 -4 -85 59 -127 114 -23 30 -47 75 -54 102 -7
26 -16 49 -19 51 -4 3 -6 -59 -6 -137z"/>
</g>
</svg>
